<?xml version="1.0" encoding="UTF-8"?>
<!-- Generator: Adobe Illustrator 23.0.1, SVG Export Plug-In . SVG Version: 6.00 Build 0)  -->
<svg version="1.1" id="Ebene_1" xmlns="http://www.w3.org/2000/svg" xmlns:xlink="http://www.w3.org/1999/xlink" x="0px" y="0px" viewBox="0 0 819.87 237.85" style="enable-background:new 0 0 819.87 237.85;" xml:space="preserve">
<style type="text/css">
	.st0{fill:#349DAB;}
	.st1{fill:#44B0C1;}
	.st2{fill:#45B2C2;}
	.st3{fill-rule:evenodd;clip-rule:evenodd;fill:#44B0C1;}
	.st4{fill-rule:evenodd;clip-rule:evenodd;fill:#349DAB;}
</style>
<g>
	<g>
		<g>
			<path class="st0" d="M483.53,136.06c0-11.12-1.5-18.97-7.17-25.28c-5.67-6.3-13.37-9.45-23.1-9.45c-9.83,0-17.8,3.22-23.92,9.67     c-6.12,6.44-9.18,14.75-9.18,24.92c0,10.55,6.03,34.87,35.5,34.87c11.25,0,19.9-2.81,26.25-9.16v-13.3c0,0-8.23,9.91-23.15,9.91     c-17.84,0-21.18-14.3-20.75-18.67l45.51-0.86V136.06z M438.31,128.9c0.71-5.11,4.24-15.54,15.66-15.54     c10.66,0,13.13,10.67,13.6,15.54H438.31z"/>
		</g>
		<path class="st1" d="M572.56,98.3c-2.23-1.17-9.89-5.49-14.55-7.2c-13.42-4.93-25.39-2.98-35.49,5.47    c-7.26,6.08-11.32,14.16-12.06,24.02c-0.79,10.55,2.33,19.66,9.28,27.09c7.4,7.91,16,11.17,28.09,10.5    c11.43-0.63,24.72-9.53,24.72-9.53v14.2c-8.41,5.02-18.93,7.94-28.01,7.94c-12.72,0-25.08-4.81-34.27-14.13    c-9.32-9.45-13.82-21.2-13.37-34.92c0.75-22.78,15.98-40.48,39.17-44.86c12.66-2.39,25.55,0.72,36.49,7.77V98.3z"/>
		<g>
			<path class="st0" d="M483.53,136.06c0-11.12-1.5-18.97-7.17-25.28c-5.67-6.3-13.37-9.45-23.1-9.45c-9.83,0-17.8,3.22-23.92,9.67     c-6.12,6.44-9.18,14.75-9.18,24.92c0,10.55,6.03,34.87,35.5,34.87c11.25,0,19.9-2.81,26.25-9.16v-13.3c0,0-8.23,9.91-23.15,9.91     c-17.84,0-21.18-14.3-20.75-18.67l45.51-0.86V136.06z M438.31,128.9c0.71-5.11,4.24-15.54,15.66-15.54     c10.66,0,13.13,10.67,13.6,15.54H438.31z"/>
		</g>
		<g>
			<path class="st2" d="M629.57,168.9h-12.71v-68.68h12.71V168.9L629.57,168.9z M623.15,89.55c-2.28,0-4.21-0.73-5.81-2.18     c-1.59-1.45-2.39-3.41-2.39-5.88c0-2.47,0.8-4.42,2.39-5.88c1.59-1.45,3.53-2.18,5.81-2.18c2.28,0,4.21,0.73,5.81,2.18     c1.59,1.45,2.39,3.41,2.39,5.88c0,2.47-0.8,4.42-2.39,5.88C627.36,88.83,625.43,89.55,623.15,89.55L623.15,89.55z"/>
			<path class="st2" d="M728.67,168.9h-12.71v-68.68h12.71V168.9L728.67,168.9z M722.25,89.55c-2.28,0-4.21-0.73-5.81-2.18     c-1.59-1.45-2.39-3.41-2.39-5.88c0-2.47,0.8-4.42,2.39-5.88c1.59-1.45,3.53-2.18,5.81-2.18c2.28,0,4.21,0.73,5.81,2.18     c1.59,1.45,2.39,3.41,2.39,5.88c0,2.47-0.8,4.42-2.39,5.88C726.46,88.83,724.53,89.55,722.25,89.55L722.25,89.55z"/>
		</g>
		<g>
			<polygon class="st0" points="324.67,77.38 324.67,91.78 295.56,91.78 295.56,168.91 278.2,168.91 278.2,91.78 249.09,91.78      249.09,77.38 324.67,77.38    "/>
		</g>
		<g>
			<path class="st0" d="M376.53,136.06c0-11.12-1.5-18.97-7.17-25.28c-5.67-6.3-13.37-9.45-23.1-9.45c-9.83,0-17.8,3.22-23.92,9.67     c-6.12,6.44-9.18,14.75-9.18,24.92c0,10.55,6.03,34.87,35.5,34.87c11.25,0,19.9-2.81,26.25-9.16v-13.3c0,0-8.23,9.91-23.15,9.91     c-17.84,0-21.18-14.3-20.75-18.67l45.51-0.86V136.06z M331.31,128.9c0.71-5.11,4.24-15.54,15.66-15.54     c10.66,0,13.13,10.67,13.6,15.54H331.31z"/>
		</g>
		<path class="st0" d="M414.13,156.77c-0.96-0.19-5.08-0.72-6.98-2.98c-0.79-0.95-2.2-2.73-2.19-8.25l0-68.15h-16.54l0,71.19    c0,3.43,0.39,6.49,1.16,9.18c0.77,2.69,2.12,4.93,4.03,6.74c1.91,1.8,4.49,3.19,7.72,4.16c3.12,0.93,8.1,1.42,12.78,1.54V156.77z"/>
		<path class="st1" d="M603.77,160.6c-1.11-0.2-2.11-0.42-2.97-0.67c-1.37-0.4-2.46-0.99-3.28-1.78c-0.82-0.79-1.41-1.85-1.78-3.17    c-0.36-1.32-0.55-2.99-0.55-5.02l-0.02-72.58h-12.71l0.02,74.66c0,6.52,1.64,11.31,4.92,14.4c3.23,3.04,8.7,4.56,16.36,4.77V160.6    z"/>
		<path class="st2" d="M644.29,102.68c26.1-10.42,38.56-5.4,42.29-3.81c3.73,1.59,6.66,3.86,8.94,6.68    c6.07,7.54,5.93,18.14,6.07,23.53v39.83h-12.69v-37.1c0.38-19.44-7.12-21.72-9.28-22.85c-7.83-4.11-15.77-1.68-22.78,1.66    l0.14,58.29h-12.69V102.68z"/>
		<path class="st2" d="M795.94,117.37c-2.37-1.25-6.53-3.52-8.92-4.47c-7.42-2.92-14.95-3.23-22.21,0.39    c-9.73,4.85-14.01,13.01-13.45,23.28c0.52,9.47,5.21,16.79,14.41,20.8c6.9,3.01,13.98,2.74,20.91,0.02    c2.61-1.03,6.64-3.45,9.25-4.72v12.13c-12.21,8.2-31.4,8.5-44.8-2.38c-7-5.67-10.94-13.13-12.12-21.83    c-1.32-9.77,0.46-18.98,6.69-27.01c8.04-10.37,19.01-14.58,32.22-13.94c7.61,0.47,12.99,3.06,18,5.75L795.94,117.37z"/>
	</g>
	<g>
		<g>
			<path class="st3" d="M66.01,113.25c0.23-0.05,0.47-0.07,0.71-0.07h26.59l8.72-24.11c0.81-2.49,3.37-2.54,3.37-2.54     c1.46,0.01,2.65,0.83,3.12,2.17l12.04,34.4l8.52-16.55c0.56-1.09,1.69-1.79,2.94-1.83c1.23-0.04,2.43,0.58,3.07,1.62l7.63,12.43     l5.22-5.43c0.1-0.1,0.23-0.16,0.38-0.16l25.98,0l0.32-0.65c3.08-7.61,4.06-15.34,1.86-22.8c-0.34-1.15-0.8-2.28-1.35-3.35     c-5.28-10.21-15.03-16.14-26.48-16.25c-7.69,0-14.93,2.9-20.4,8.17l-8.05,7.75l-7.87-7.92c-5.45-5.47-12.75-8.53-20.88-8.61     c-15.81,0-28.8,12.44-28.97,27.72c-0.06,5.04,1.11,10.17,3.2,15.27L66.01,113.25z"/>
			<path class="st4" d="M151.08,119.8l-6.45,6.72c-0.73,0.76-1.81,1.15-2.87,1.04c-1.08-0.11-2.03-0.71-2.58-1.6l-6.76-11.01     l-8.91,17.75c-0.27,0.53-1.28,2.68-3.79,2.32c-1.37-0.2-2.43-0.83-3.44-3.47l-10.96-31.51l-7.03,19.42     c-0.07,0.2-0.27,0.33-0.49,0.33H69.23c11.56,20.4,35.36,39.34,50.05,49.09c15.16-9.59,39.98-28.5,51.75-49.09L151.08,119.8z"/>
		</g>
		<path class="st3" d="M119.56,19.16c-53.13,0-95.62,40.16-95.62,91.5c0,36.68,21.98,68.39,53.9,83.52c0,0,5.58,2.23,7.42,2.95    c1.84,0.72,3.95,0.15,5.15-1.38c8.55-10.88,11.63-22.32,2.01-31.74c-18.37-17.97-43.48-35.66-42.55-68.93    c0.6-21.7,18.64-39.12,41.1-38.88c11.36,0.11,21.57,4.74,28.86,12.08c7.46-7.19,17.77-11.59,29.13-11.47    c22.46,0.22,39.47,18.02,40.23,39.7c1.74,49.79-69.35,92.66-112.29,114.39l-9.71,4.78c-1.32,0.65-0.76,2.65,0.7,2.51    c28.72-2.75,137.99-18.76,146.13-103.89C218.92,63.14,172.69,19.16,119.56,19.16z"/>
	</g>
</g>
</svg>